<?xml version="1.0" standalone="no"?>
<!DOCTYPE svg PUBLIC "-//W3C//DTD SVG 20010904//EN"
 "http://www.w3.org/TR/2001/REC-SVG-20010904/DTD/svg10.dtd">
<svg version="1.0" xmlns="http://www.w3.org/2000/svg"
 width="100.000000pt" height="100.000000pt" viewBox="0 0 100.000000 100.000000"
 preserveAspectRatio="xMidYMid meet">

<g transform="translate(0.000000,100.000000) scale(0.100000,-0.100000)"
fill="#000000" stroke="none">
<path d="M480 950 c0 -5 -9 -10 -20 -10 -11 0 -20 -4 -20 -10 0 -5 -13 -10
-30 -10 -16 0 -30 -4 -30 -10 0 -5 -9 -10 -20 -10 -11 0 -20 -4 -20 -10 0 -5
-9 -10 -20 -10 -11 0 -20 -4 -20 -10 0 -5 -9 -10 -20 -10 -11 0 -20 -4 -20
-10 0 -5 -9 -10 -20 -10 -11 0 -20 -4 -20 -10 0 -5 -9 -10 -20 -10 -11 0 -20
-4 -20 -10 0 -5 -9 -10 -20 -10 -11 0 -20 -4 -20 -10 0 -5 -11 -10 -25 -10
-38 0 -75 -42 -75 -85 0 -32 2 -35 30 -35 l30 0 0 -230 c0 -202 -2 -230 -16
-230 -28 0 -44 -27 -44 -74 l0 -46 460 0 460 0 0 46 c0 47 -16 74 -44 74 -14
0 -16 28 -16 230 l0 230 30 0 c28 0 30 3 30 35 0 38 -36 85 -65 85 -8 0 -15 5
-15 10 0 6 -13 10 -30 10 -16 0 -30 5 -30 10 0 6 -9 10 -20 10 -11 0 -20 5
-20 10 0 6 -9 10 -20 10 -11 0 -20 5 -20 10 0 6 -9 10 -20 10 -11 0 -20 5 -20
10 0 6 -9 10 -20 10 -11 0 -20 5 -20 10 0 6 -9 10 -20 10 -11 0 -20 5 -20 10
0 6 -9 10 -20 10 -11 0 -20 5 -20 10 0 6 -13 10 -30 10 -16 0 -30 5 -30 10 0
6 -9 10 -20 10 -11 0 -20 -4 -20 -10z m40 -40 c0 -5 9 -10 20 -10 11 0 20 -4
20 -10 0 -5 9 -10 20 -10 11 0 20 -4 20 -10 0 -5 9 -10 20 -10 11 0 20 -4 20
-10 0 -5 9 -10 20 -10 11 0 20 -4 20 -10 0 -5 14 -10 30 -10 17 0 30 -4 30
-10 0 -5 9 -10 20 -10 11 0 20 -4 20 -10 0 -5 9 -10 20 -10 11 0 20 -4 20 -10
0 -5 9 -10 20 -10 11 0 20 -4 20 -10 0 -5 7 -10 16 -10 15 0 44 -23 44 -34 0
-3 -40 -6 -90 -6 -83 0 -90 -1 -90 -20 0 -13 7 -20 20 -20 19 0 20 -7 20 -230
l0 -230 -280 0 -280 0 0 230 c0 223 1 230 20 230 13 0 20 7 20 20 0 19 -7 20
-90 20 -50 0 -90 3 -90 6 0 11 29 34 44 34 9 0 16 5 16 10 0 6 9 10 20 10 11
0 20 5 20 10 0 6 9 10 20 10 11 0 20 5 20 10 0 6 14 10 30 10 17 0 30 5 30 10
0 6 9 10 20 10 11 0 20 5 20 10 0 6 9 10 20 10 11 0 20 5 20 10 0 6 9 10 20
10 11 0 20 5 20 10 0 6 9 10 20 10 11 0 20 5 20 10 0 6 9 10 20 10 11 0 20 5
20 10 0 6 9 10 20 10 11 0 20 -4 20 -10z m-340 -480 c0 -223 -1 -230 -20 -230
-19 0 -20 7 -20 230 0 223 1 230 20 230 19 0 20 -7 20 -230z m680 0 c0 -223
-1 -230 -20 -230 -19 0 -20 7 -20 230 0 223 1 230 20 230 19 0 20 -7 20 -230z
m60 -290 c0 -20 -7 -20 -420 -20 -413 0 -420 0 -420 20 0 20 7 20 420 20 413
0 420 0 420 -20z"/>
<path d="M280 484 c0 -204 0 -204 84 -204 31 0 56 -4 56 -10 0 -5 14 -10 30
-10 17 0 30 -4 30 -10 0 -5 9 -10 20 -10 11 0 20 5 20 10 0 6 14 10 30 10 17
0 30 5 30 10 0 6 25 10 56 10 84 0 84 0 84 204 l0 176 -50 0 c-27 0 -50 -4
-50 -10 0 -5 -22 -10 -50 -10 -27 0 -50 -4 -50 -10 0 -5 -9 -10 -20 -10 -11 0
-20 5 -20 10 0 6 -22 10 -50 10 -27 0 -50 5 -50 10 0 6 -22 10 -50 10 l-50 0
0 -176z m100 126 c0 -5 16 -10 36 -10 59 0 64 -12 64 -164 0 -129 -1 -136 -20
-136 -11 0 -20 5 -20 10 0 6 -27 10 -60 10 l-60 0 0 150 0 150 30 0 c17 0 30
-4 30 -10z m300 -140 l0 -150 -60 0 c-33 0 -60 -4 -60 -10 0 -5 -9 -10 -20
-10 -19 0 -20 7 -20 136 0 152 5 164 64 164 20 0 36 5 36 10 0 6 14 10 30 10
l30 0 0 -150z"/>
</g>
</svg>
