<?xml version="1.0" standalone="no"?>
<!DOCTYPE svg PUBLIC "-//W3C//DTD SVG 20010904//EN"
 "http://www.w3.org/TR/2001/REC-SVG-20010904/DTD/svg10.dtd">
<svg version="1.0" xmlns="http://www.w3.org/2000/svg"
 width="100.000000pt" height="100.000000pt" viewBox="0 0 100.000000 100.000000"
 preserveAspectRatio="xMidYMid meet">

<g transform="translate(0.000000,100.000000) scale(0.100000,-0.100000)"
fill="#000000" stroke="none">
<path d="M43 975 c-13 -13 -23 -31 -23 -40 0 -8 -4 -15 -10 -15 -6 0 -10 -27
-10 -60 0 -33 4 -60 10 -60 6 0 10 -7 10 -15 0 -9 11 -27 25 -40 18 -19 35
-25 70 -25 l45 0 0 -300 c0 -193 4 -300 10 -300 6 0 10 -11 10 -25 0 -29 40
-75 65 -75 8 0 15 -4 15 -10 0 -6 118 -10 335 -10 l336 0 24 25 c14 13 25 31
25 40 0 8 5 15 10 15 6 0 10 27 10 60 0 33 -4 60 -10 60 -5 0 -10 7 -10 15 0
9 -11 27 -25 40 -21 22 -33 25 -90 25 l-65 0 0 300 c0 193 -4 300 -10 300 -5
0 -10 11 -10 25 0 29 -40 75 -65 75 -8 0 -15 5 -15 10 0 6 -112 10 -317 9
l-318 0 -22 -24z m537 -35 c0 -11 -4 -20 -10 -20 -6 0 -10 -27 -10 -60 0 -33
4 -60 10 -60 6 0 10 -9 10 -20 0 -19 -7 -20 -245 -20 l-246 0 -24 25 c-34 33
-35 115 -2 150 l22 24 248 0 c241 1 247 0 247 -19z m135 -5 c14 -13 25 -31 25
-40 0 -8 5 -15 10 -15 6 0 10 -133 10 -380 0 -247 4 -380 10 -380 6 0 10 -13
10 -30 0 -16 5 -30 10 -30 6 0 10 -4 10 -10 0 -6 -95 -10 -265 -10 l-266 0
-24 25 c-14 13 -25 31 -25 40 0 8 -4 15 -10 15 -6 0 -10 107 -10 300 l0 300
230 0 c204 0 230 2 230 16 0 9 -13 29 -30 44 -26 24 -30 35 -30 79 0 88 63
129 115 76z m220 -720 c36 -35 36 -115 0 -150 -13 -14 -34 -25 -45 -25 -24 0
-70 42 -70 65 0 8 -4 15 -10 15 -6 0 -10 27 -10 60 l0 60 55 0 c46 0 60 -4 80
-25z"/>
<path d="M280 560 c0 -17 7 -20 40 -20 33 0 40 3 40 20 0 17 -7 20 -40 20 -33
0 -40 -3 -40 -20z"/>
<path d="M400 560 c0 -19 7 -20 140 -20 133 0 140 1 140 20 0 19 -7 20 -140
20 -133 0 -140 -1 -140 -20z"/>
<path d="M280 440 c0 -17 7 -20 40 -20 33 0 40 3 40 20 0 17 -7 20 -40 20 -33
0 -40 -3 -40 -20z"/>
<path d="M400 440 c0 -19 7 -20 140 -20 133 0 140 1 140 20 0 19 -7 20 -140
20 -133 0 -140 -1 -140 -20z"/>
<path d="M280 320 c0 -17 7 -20 40 -20 33 0 40 3 40 20 0 17 -7 20 -40 20 -33
0 -40 -3 -40 -20z"/>
<path d="M400 320 c0 -19 7 -20 140 -20 133 0 140 1 140 20 0 19 -7 20 -140
20 -133 0 -140 -1 -140 -20z"/>
<path d="M280 200 c0 -17 7 -20 40 -20 33 0 40 3 40 20 0 17 -7 20 -40 20 -33
0 -40 -3 -40 -20z"/>
<path d="M400 200 c0 -19 7 -20 140 -20 133 0 140 1 140 20 0 19 -7 20 -140
20 -133 0 -140 -1 -140 -20z"/>
</g>
</svg>
